<svg width="297" height="77" viewBox="0 0 297 77" fill="none" xmlns="http://www.w3.org/2000/svg">
<path d="M160.17 32.89H153.05V27.25H160.49V13.09L166.67 11.45V27.25H174.18V32.89H166.67V65.38H160.17V32.89Z" fill="black"/>
<path d="M180.61 29.13C183.43 27.72 187.34 26.47 191.57 26.47C200.18 26.47 206.29 30.85 206.29 41.11V65.38H199.79V61.23C197.75 64.2 194.15 66.16 189.77 66.16C181.39 66.16 176.46 60.37 176.46 53.48C176.46 46.59 182.02 40.96 189.84 40.96C193.99 40.96 197.9 43.07 199.78 45.42V41.04C199.78 34.93 195.48 32.43 190.94 32.43C187.18 32.43 183.66 33.68 180.61 35.56V29.13ZM191.33 61.15C195.95 61.15 199.71 57.78 199.71 53.48C199.71 49.18 195.8 45.97 191.33 45.97C186.86 45.97 182.95 49.34 182.95 53.48C182.95 57.62 186.78 61.15 191.33 61.15Z" fill="black"/>
<path d="M221.4 65.37H214.9V11.36H221.4V65.37Z" fill="black"/>
<path d="M236.72 11.36V45.41L252.06 27.25H259.89L247.21 42.51L260.2 65.37H252.53L242.35 47.13L236.71 53.71V65.37H230.21V11.36H236.72Z" fill="black"/>
<path d="M285.16 35.31C282.73 33.51 279.6 32.26 276.47 32.26C272.4 32.26 270.29 34.37 270.29 37.11C270.29 39.15 271.39 40.24 273.66 41.65L280.39 45.64C285.32 48.61 286.81 51.9 286.81 55.5C286.81 62 281.8 66.15 273.74 66.15C269.83 66.15 266.23 65.05 263.88 63.88V56.84C265.84 58.56 269.52 60.44 273.43 60.44C277.73 60.44 280.08 58.4 280.08 55.51C280.08 53.55 279.06 52.07 276.17 50.34L269.13 46.11C265.14 43.76 263.49 40.55 263.49 36.95C263.49 31 268.03 26.46 276.41 26.46C279.78 26.46 282.99 27.32 285.18 28.42V35.31H285.16Z" fill="black"/>
<path d="M10.94 26.43H21.56V65.3H10.94V26.43ZM55.19 11.45H65.45V65.31H56.87L55.19 60.31C52.46 63.98 48.6 66.16 43.6 66.16C32.59 66.16 26.24 57.26 26.24 45.87C26.24 34.48 32.6 25.65 43.68 25.65C48.68 25.65 52.46 27.76 55.19 31.43V11.45ZM55.53 45.68C55.53 39.79 51.64 34.85 46.27 34.85C40.01 34.85 36.93 39.79 36.93 45.68C36.93 51.57 40.01 56.6 46.27 56.6C51.65 56.6 55.53 51.58 55.53 45.68ZM16.24 10C12.65 10 10 12.81 10 16.32C10 19.83 12.65 22.56 16.24 22.56C19.83 22.56 22.48 19.83 22.48 16.32C22.48 12.81 19.91 10 16.24 10ZM107.63 44.15C107.63 45.79 107.32 47.97 107.01 49.22H80.63C81.57 53.67 85.47 56.56 90.93 56.56C95.77 56.56 100.61 55.16 104.12 52.89V63.11C100.69 64.91 95.69 66.15 90.07 66.15C78.52 66.15 70.01 57.95 70.01 45.86C70.01 34.46 78.21 25.64 89.45 25.64C100.69 25.64 107.64 34.07 107.64 44.14L107.63 44.15ZM97.41 41.19C97.25 37.21 93.9 34.48 89.37 34.48C84.84 34.48 81.17 37.52 80.63 41.19H97.41ZM146.68 46.76C146.72 52.23 146.68 59.81 146.66 65.3H137.93L136.25 60.27C135.17 61.92 133.68 63.28 131.81 64.27C129.31 65.59 126.51 66.11 123.96 66.11C121.9 66.11 120.01 65.77 118.58 65.23C113.56 63.34 110.5 59.03 110.4 53.68C110.25 49.83 112.05 45.76 114.89 43.55C117.97 41.16 121.95 39.94 126.43 40C129.79 40.05 133.15 40.84 136.1 42.26C135.83 39.38 134.59 36.91 131.79 35.52C129.23 34.2 126.24 34.21 123.4 34.7C120.64 35.15 117.87 36 115.27 37.05C114.82 37.23 114.37 37.43 113.93 37.63V28.41C117.99 26.43 122.82 25.64 127.67 25.62C136.19 25.69 143.64 29.33 145.89 37.92C146.72 40.87 146.66 43.78 146.68 46.76ZM136.11 53.81C136.11 52.13 136.11 50.31 136.12 48.63C136.06 48.6 136 48.58 135.94 48.56C135.22 48.36 134.49 48.18 133.75 48.04C130.54 47.41 126.01 47.32 123.44 49.61C122.42 50.52 121.74 51.6 121.64 53.08C121.54 54.53 121.92 55.69 122.77 56.52C123.91 57.64 125.9 58.17 128.23 57.96C130.14 57.8 132.13 57.07 133.81 55.9C134.55 55.38 135.41 54.67 136.1 53.81H136.11Z" fill="#5C6BEA"/>
</svg>
