<svg width="333" height="57" viewBox="0 0 333 57" fill="none" xmlns="http://www.w3.org/2000/svg">
<path d="M11.57 16.45H0.94V55.36H11.57V16.45Z" fill="#5C6BEA"/>
<path d="M45.24 21.45C42.51 17.78 38.72 15.67 33.72 15.67C22.62 15.67 16.26 24.5 16.26 35.91C16.26 47.32 22.62 56.23 33.64 56.23C38.64 56.23 42.51 54.04 45.24 50.37L46.92 55.37H55.51V1.45H45.24V21.45ZM36.3 46.64C30.04 46.64 26.95 41.61 26.95 35.71C26.95 29.81 30.04 24.87 36.3 24.87C41.68 24.87 45.57 29.81 45.57 35.71C45.57 41.61 41.68 46.64 36.3 46.64Z" fill="#5C6BEA"/>
<path d="M6.25 0C2.66 0 0 2.81 0 6.33C0 9.85 2.66 12.58 6.25 12.58C9.84 12.58 12.5 9.85 12.5 6.33C12.5 2.81 9.92 0 6.25 0Z" fill="#5C6BEA"/>
<path d="M79.53 15.67C68.28 15.67 60.07 24.5 60.07 35.91C60.07 48.02 68.59 56.23 80.15 56.23C85.78 56.23 90.78 54.98 94.21 53.18V42.94C90.69 45.21 85.85 46.61 81 46.61C75.53 46.61 71.62 43.72 70.69 39.27H97.1C97.41 38.02 97.73 35.83 97.73 34.19C97.73 24.11 90.78 15.67 79.52 15.67H79.53ZM70.7 31.22C71.25 27.55 74.76 24.5 79.45 24.5C84.14 24.5 87.34 27.23 87.5 31.22H70.7Z" fill="#5C6BEA"/>
<path d="M145.38 14.39V16.51H139.69V25.94H145.38V55.37H156.08V25.94H163.97V16.51H156.08V15.13C156.08 12.61 157.62 10.82 160.39 10.82C161.61 10.82 163.32 11.15 164.13 11.55V0.49C163.32 0.25 161.28 0 159.98 0C150.96 0 145.37 4.88 145.37 14.39H145.38Z" fill="#5C6BEA"/>
<path d="M185.21 15.67C173.96 15.67 165.75 24.5 165.75 35.91C165.75 48.02 174.27 56.23 185.83 56.23C191.46 56.23 196.46 54.98 199.9 53.18V42.94C196.38 45.21 191.54 46.61 186.69 46.61C181.22 46.61 177.31 43.72 176.38 39.27H202.79C203.1 38.02 203.42 35.83 203.42 34.19C203.42 24.11 196.47 15.67 185.21 15.67ZM176.38 31.22C176.93 27.55 180.44 24.5 185.13 24.5C189.82 24.5 193.02 27.23 193.18 31.22H176.38Z" fill="#5C6BEA"/>
<path d="M225.45 33.8L219.82 30.52C218.34 29.58 217.55 28.96 217.55 27.71C217.55 26.23 218.72 24.9 221.38 24.9C224.04 24.9 227.47 25.99 229.9 27.48V17.01C227.4 16.23 223.88 15.68 220.99 15.68C211.85 15.68 206.53 20.45 206.53 27.32C206.53 31.15 208.09 34.98 212.16 37.32L218.26 40.84C220.14 41.93 220.84 42.95 220.84 44.2C220.84 45.84 219.51 47.09 216.78 47.09C213.65 47.09 209.2 45.21 207.4 43.65V54.28C210.14 55.45 214.04 56.23 217.56 56.23C226.86 56.23 231.86 51.07 231.86 44.35C231.86 40.29 230.14 36.61 225.45 33.8Z" fill="#5C6BEA"/>
<path d="M252.42 45.26C250.91 44.4 250.61 42.99 250.61 41.74V25.52H257.17V16.46H250.61V5.67L240.61 7.94V16.46H234.05V25.52H239.99V44.05C239.99 52.49 245.24 56.24 251.1 56.24C254.52 56.24 257.41 55.38 257.41 55.38V44.76C257.41 44.76 254.85 46.64 252.42 45.27V45.26Z" fill="#5C6BEA"/>
<path d="M136.04 27.95C133.78 19.35 126.33 15.71 117.8 15.64C112.95 15.67 108.11 16.45 104.05 18.44V27.67C104.49 27.47 104.94 27.27 105.39 27.09C108 26.03 110.77 25.19 113.53 24.74C116.37 24.26 119.37 24.25 121.93 25.56C124.73 26.94 125.98 29.42 126.24 32.31C123.28 30.89 119.92 30.1 116.56 30.05C112.07 29.99 108.09 31.21 105.01 33.6C102.17 35.81 100.36 39.89 100.51 43.74C100.61 49.09 103.67 53.41 108.7 55.3C110.14 55.84 112.03 56.18 114.09 56.18C116.64 56.18 119.45 55.66 121.95 54.33C123.82 53.34 125.32 51.98 126.4 50.33L128.08 55.37H136.82C136.83 49.87 136.89 42.28 136.84 36.81C136.82 33.83 136.88 30.92 136.05 27.96L136.04 27.95ZM123.96 45.95C122.27 47.12 120.29 47.85 118.37 48.01C116.04 48.21 114.04 47.69 112.9 46.57C112.05 45.73 111.67 44.57 111.77 43.12C111.87 41.64 112.55 40.55 113.57 39.65C116.14 37.36 120.68 37.45 123.89 38.08C124.63 38.23 125.36 38.4 126.08 38.6C126.14 38.62 126.2 38.64 126.26 38.67C126.26 40.35 126.25 42.17 126.25 43.85C125.56 44.72 124.7 45.43 123.96 45.95Z" fill="#5C6BEA"/>
<path d="M281.28 11.54C283.56 12.85 288.42 15.69 290.83 17.63C293.08 19.36 295.21 21.28 297.32 23.2C297.55 23.41 297.91 23.39 298.12 23.16C298.45 22.79 298.81 22.44 299.18 22.1C299.41 21.89 299.43 21.53 299.22 21.3C297.3 19.19 295.37 17.1 293.64 14.82C291.51 12.18 289.82 9.15 288.11 6.19C287.82 5.68 287.17 5.51 286.67 5.82C284.71 7.02 282.86 8.38 281.12 9.87C280.58 10.33 280.66 11.19 281.28 11.54Z" fill="#5C6BEA"/>
<path d="M305.36 22.11C305.73 22.44 306.08 22.8 306.42 23.17C306.63 23.4 306.99 23.42 307.22 23.21C309.33 21.28 311.46 19.37 313.71 17.64C316.12 15.7 320.98 12.85 323.26 11.55C323.88 11.2 323.95 10.34 323.42 9.88C321.69 8.39 319.83 7.03 317.87 5.83C317.37 5.52 316.72 5.69 316.43 6.2C314.73 9.17 313.03 12.19 310.9 14.83C309.17 17.12 307.24 19.21 305.32 21.31C305.11 21.54 305.13 21.9 305.36 22.11Z" fill="#5C6BEA"/>
<path d="M323.72 40.06C320.25 38.01 316.57 36.11 313.44 33.59C311.2 31.9 309.15 30.01 307.09 28.13C306.86 27.92 306.51 27.94 306.3 28.17C305.97 28.53 305.63 28.88 305.27 29.2C305.04 29.41 305.02 29.76 305.23 29.99C307.12 32.06 308.99 34.14 310.69 36.35C313.21 39.49 315.12 43.16 317.16 46.63C319.25 50.07 321.8 53.11 324.56 55.98C325.12 56.54 326.02 56.51 326.55 55.93C328.7 53.58 330.58 50.99 332.15 48.2C332.49 47.59 332.37 46.82 331.86 46.35C329.34 44.02 326.67 41.88 323.71 40.08L323.72 40.06Z" fill="#5C6BEA"/>
<path d="M293.86 36.34C295.55 34.13 297.43 32.05 299.32 29.98C299.53 29.75 299.51 29.4 299.28 29.19C298.92 28.86 298.57 28.52 298.25 28.16C298.04 27.93 297.69 27.91 297.46 28.12C295.4 30 293.35 31.89 291.11 33.58C287.97 36.1 284.3 38.01 280.83 40.05C277.87 41.86 275.2 44 272.68 46.32C272.16 46.8 272.04 47.56 272.39 48.17C273.96 50.96 275.85 53.55 277.99 55.9C278.52 56.48 279.43 56.51 279.98 55.95C282.75 53.08 285.29 50.04 287.38 46.6C289.43 43.13 291.33 39.45 293.85 36.32L293.86 36.34Z" fill="#5C6BEA"/>
</svg>
