<svg width="576" height="76" viewBox="0 0 576 76" fill="none" xmlns="http://www.w3.org/2000/svg">
<path d="M5.98284 58V2.24502H16.7868V58H5.98284ZM43.6083 2.24502C56.5416 2.24502 63.0082 8.47507 63.0082 20.0677C63.0082 30.7928 56.5416 37.5749 44.4758 37.5749H37.0628V58H26.2588V2.24502H43.6083ZM37.0628 28.7424H42.8197C49.4441 28.7424 52.5197 25.9034 52.5197 20.0677C52.5197 13.8376 49.3652 11.1563 42.7409 11.1563H37.0628V28.7424ZM120.445 46.8805L130.933 58H118.079L114.372 53.9781C109.956 57.6846 104.593 59.4984 98.2057 59.4984C87.7171 59.4984 80.383 52.6374 80.3041 42.9375C80.3041 36.4708 83.6952 31.266 90.1618 27.6384C86.1399 23.4587 84.2472 18.8848 84.2472 14.3108C84.2472 6.03036 90.3195 0.825513 99.3886 0.825513C108.221 0.825513 114.293 5.9515 114.293 13.7588C114.293 20.3831 111.139 25.4303 104.041 29.4522L113.584 39.5464C115.003 36.392 116.186 32.6066 117.054 28.1904L117.684 27.7172H127.542C125.886 35.6034 123.52 41.9911 120.445 46.8805ZM99.5463 8.3962C96.1553 8.3962 94.026 10.762 94.026 14.3897C94.026 17.5441 96.1553 21.1717 98.6 23.6953C103.095 20.8563 104.909 17.9384 104.909 14.1531C104.909 10.762 102.78 8.3962 99.5463 8.3962ZM98.9943 50.9025C102.464 50.9025 105.54 49.6407 108.221 47.196L95.9187 33.8684C92.3699 36.1554 90.635 38.9156 90.7138 42.622C90.7138 47.5114 94.1049 50.9025 98.9943 50.9025ZM172.08 59.4984C156.229 59.4984 145.583 47.9057 145.583 30.2408C145.583 12.497 156.466 0.746653 172.001 0.746653C178.231 0.746653 183.988 2.63932 189.587 6.34581L188.089 16.9132H187.616C183.042 12.9702 177.995 10.9198 172.869 10.9198C163.327 10.9198 157.175 18.5693 157.175 30.0831C157.175 41.7546 163.484 49.3253 173.105 49.3253C178.231 49.3253 183.357 47.196 187.931 43.2529H188.326L189.903 53.8992C184.304 57.6057 178.389 59.4984 172.08 59.4984ZM212.888 59.4984C201.216 59.4984 193.725 50.9813 193.725 38.6001C193.725 26.2977 201.295 17.623 212.888 17.623C224.481 17.623 232.051 26.2977 232.051 38.6001C232.051 50.9813 224.559 59.4984 212.888 59.4984ZM212.888 50.6659C218.566 50.6659 221.799 46.0131 221.799 38.6001C221.799 31.1871 218.566 26.4555 212.888 26.4555C207.21 26.4555 203.977 31.1871 203.977 38.6001C203.977 46.0131 207.21 50.6659 212.888 50.6659ZM260.404 17.623C267.501 17.623 271.681 22.5912 271.681 31.7392V58H261.429V33.3953C261.429 28.5059 259.852 26.4555 256.54 26.4555C253.622 26.4555 250.546 28.3481 247.944 31.1871V58H237.692V19.1213H246.84L247.313 24.5628C250.94 20.3043 255.199 17.623 260.404 17.623ZM293.418 59.4984C285.059 59.4984 281.116 55.161 281.116 46.3285V27.0863H275.201V19.1213H281.274V11.2352L289.16 6.50353H291.289V19.1213H300.91V27.0863H291.289V44.909C291.289 49.3253 292.63 50.587 295.863 50.587C297.361 50.587 298.781 50.2716 300.2 49.5618L300.831 49.8773L301.147 58.0789C299.096 58.9463 296.021 59.4984 293.418 59.4984ZM337.858 38.1269C337.858 39.3099 337.858 39.9407 337.779 41.0448H313.174C313.49 47.4326 316.96 51.2179 322.48 51.2179C326.344 51.2179 330.839 49.9561 334.23 46.8805H334.625L335.808 55.161C331.943 57.7634 326.738 59.4984 321.455 59.4984C309.389 59.4984 302.686 51.0602 302.686 38.679C302.686 26.2977 309.704 17.623 320.824 17.623C331.864 17.623 337.858 25.588 337.858 38.1269ZM313.253 34.7359H328.158C327.921 28.5847 325.319 25.2725 321.06 25.2725C316.802 25.2725 313.805 28.7424 313.253 34.7359ZM366.438 17.623C373.536 17.623 377.716 22.5912 377.716 31.7392V58H367.464V33.3953C367.464 28.5059 365.886 26.4555 362.574 26.4555C359.656 26.4555 356.581 28.3481 353.978 31.1871V58H343.726V19.1213H352.874L353.347 24.5628C356.975 20.3043 361.234 17.623 366.438 17.623ZM399.453 59.4984C391.094 59.4984 387.151 55.161 387.151 46.3285V27.0863H381.236V19.1213H387.308V11.2352L395.194 6.50353H397.324V19.1213H406.945V27.0863H397.324V44.909C397.324 49.3253 398.664 50.587 401.898 50.587C403.396 50.587 404.816 50.2716 406.235 49.5618L406.866 49.8773L407.181 58.0789C405.131 58.9463 402.055 59.4984 399.453 59.4984Z" fill="#5C6BEA"/>
<path d="M456.162 32.6855H435.106V51.4545H458.055L457.266 58H427.93V2.24502H457.266L458.055 8.79051H435.106V26.2977H456.162V32.6855ZM461.948 19.3579H469.519L474.881 28.5847C475.907 30.4774 476.774 32.1335 477.642 33.8684H477.799C478.746 31.9758 479.613 30.4774 480.638 28.5847L486.08 19.3579H493.65L493.808 19.6734L481.9 38.2058L494.124 57.6846L493.966 58H486.316L480.402 47.9846C479.455 46.2497 478.667 44.6724 477.799 42.9375H477.642C476.695 44.7513 475.985 46.2497 474.96 47.9846L469.203 58H461.554L461.396 57.6846L473.62 38.2058L461.79 19.6734L461.948 19.3579ZM516.706 17.9384C525.854 17.9384 531.769 25.9034 531.769 38.2847C531.769 50.587 524.829 59.4984 515.287 59.4984C511.975 59.4984 508.584 58.3943 505.587 56.3439V75.2706H498.805V19.3579H504.798L505.035 23.1433C508.584 19.7522 512.684 17.9384 516.706 17.9384ZM513.867 53.3472C520.492 53.3472 524.75 47.5114 524.75 38.2847C524.75 29.3733 521.044 24.0896 514.892 24.0896C511.58 24.0896 508.426 25.5091 505.587 28.1115V50.9025C508.426 52.5586 510.949 53.3472 513.867 53.3472ZM554.488 59.4984C543.368 59.4984 536.35 51.2179 536.35 38.679C536.35 26.3766 543.447 17.9384 554.488 17.9384C565.528 17.9384 572.626 26.3766 572.626 38.679C572.626 51.2179 565.607 59.4984 554.488 59.4984ZM554.488 53.2683C561.427 53.2683 565.607 47.6692 565.607 38.679C565.607 29.8465 561.427 24.0896 554.488 24.0896C547.469 24.0896 543.368 29.8465 543.368 38.679C543.368 47.6692 547.469 53.2683 554.488 53.2683Z" fill="black"/>
</svg>
