<svg width="244" height="63" viewBox="0 0 244 63" fill="none" xmlns="http://www.w3.org/2000/svg">
<g clip-path="url(#clip0_387_383)">
<path d="M17.0932 37.7991C13.086 37.7991 10.1429 34.9981 10.1429 30.2628H0C0 40.2256 7.0116 45.832 16.7779 45.832C26.5442 45.832 32.9908 40.6002 32.9908 32.1317C32.9908 23.2275 25.353 20.4874 17.5881 17.8083C13.6422 16.4361 11.3254 14.8199 11.3254 12.0189C11.3254 9.21781 13.7692 7.59729 16.5852 7.59729C20.1545 7.59729 22.0946 10.0281 22.0946 13.8877H32.2376C32.2419 6.47773 26.9822 0 16.7166 0C8.64077 0 1.25254 3.98596 1.25254 12.6418C1.25254 21.2977 8.32545 23.7285 16.0903 26.5905C19.9706 28.0237 22.9136 29.2696 22.9136 32.6936C22.9136 35.743 20.4698 37.7991 17.0932 37.7991Z" fill="#231F20"/>
<path d="M16.9751 62.9962C22.8042 62.9265 28.3356 61.624 33.3238 59.337L28.5896 51.0078C24.994 52.5456 21.0437 53.4081 16.8963 53.4604C12.7533 53.4081 8.80296 52.5456 5.203 51.0078L0.46875 59.337C5.45701 61.6283 10.9883 62.9309 16.8175 62.9962C16.8437 63.0006 16.87 62.9962 16.8963 62.9962C16.9226 62.9962 16.9488 62.9962 16.9751 62.9962Z" fill="#231F20"/>
<path d="M49.4015 9.15686V18.9933H65.8859V26.8519H49.4015V36.379H65.8859V44.4207H39.3242V1.11523H65.8859V9.15686H49.4015Z" fill="#231F20"/>
<path d="M120.065 44.425H110.237V17.5731L100.843 44.425H93.3764L83.6714 17.5731V44.425H73.8438V1.11523H85.4757L97.1077 31.2474L108.621 1.11523H120.065V44.425Z" fill="#231F20"/>
<path d="M154.095 44.425L152.413 39.167H136.923L135.241 44.425H124.48L140.036 1.11523H149.304L165.039 44.425H154.09H154.095ZM144.705 13.4913L139.353 31.3127H149.93L144.705 13.4913Z" fill="#231F20"/>
<path d="M177.734 30.0712C177.734 34.7759 180.66 37.5595 184.641 37.5595C188 37.5595 190.426 35.5165 190.426 32.4845C190.426 29.0823 187.501 27.8451 183.647 26.4206C175.934 23.576 168.905 20.9753 168.905 12.5591C168.905 4.14279 176.241 0 184.264 0C194.464 0 199.689 6.43417 199.689 13.7962H189.612C189.612 9.95837 187.685 7.54501 184.137 7.54501C181.339 7.54501 178.913 9.09148 178.913 11.9361C178.913 14.7807 181.216 16.3316 185.131 17.6907C192.844 20.3524 200.433 23.075 200.433 31.9226C200.433 40.7701 193.654 45.5358 184.321 45.5358C174.988 45.5358 167.648 39.9685 167.648 30.0668H177.726L177.734 30.0712Z" fill="#231F20"/>
<path d="M232.852 44.425L231.17 39.167H215.68L214.003 44.425H203.242L218.789 1.11523H228.056L243.792 44.425H232.843H232.852ZM223.454 13.4913L218.106 31.3127H228.683L223.458 13.4913H223.454Z" fill="#231F20"/>
</g>
<defs>
<clipPath id="clip0_387_383">
<rect width="243.792" height="62.9981" fill="white"/>
</clipPath>
</defs>
</svg>
